<svg xmlns="http://www.w3.org/2000/svg" width="24" height="23" viewBox="0 0 24 23">
    <g fill="#000" fill-rule="nonzero">
        <path d="M16.246 5.966l-1.698-1.654h5.612c1.255 0 2.215.935 2.215 2.157s-.96 2.156-2.215 2.156h-2.954v1.438h2.954c2.068 0 3.692-1.582 3.692-3.594 0-2.013-1.624-3.594-3.692-3.594h-5.612l1.698-1.653L15.212.216l-3.47 3.378 3.47 3.378 1.034-1.006zM18.166 13.728l-2.215 1.006-.443-.072-6.72-6.54-.074-.431 1.108-2.157-.148-1.365L5.317 0H3.545L1.846 1.581C-.222 3.594-.369 6.756 1.403 8.984a73.144 73.144 0 0 0 6.203 6.397l.222.216a79.582 79.582 0 0 0 6.867 6.181A5.87 5.87 0 0 0 18.24 23c1.477 0 2.954-.575 3.988-1.581l1.624-1.582v-1.724l-4.357-4.241-1.329-.144zm4.283 5.534l-1.181 1.15c-1.551 1.438-3.914 1.582-5.613.288a89.16 89.16 0 0 1-6.72-6.11l-.295-.215A82.732 82.732 0 0 1 2.585 8.05c-1.33-1.581-1.182-3.953.369-5.463l1.181-1.15h.591l3.545 3.45.074.432-1.108 2.156.148 1.366 7.458 7.187 1.403.144 2.216-1.006.443.072 3.544 3.45v.575z"/>
    </g>
</svg>
