<svg xmlns="http://www.w3.org/2000/svg" width="102" height="50" viewBox="0 0 102 50">
    <g fill="none" fill-rule="evenodd">
        <path fill="#FFF" d="M59.912 15.72V33h-1.896v-1.536h-.048c-.84 1.008-2.256 1.944-4.296 1.944-3.12 0-5.808-2.424-5.808-6.168 0-3.48 2.472-6.12 5.808-6.12 2.16 0 3.312.864 4.296 2.016h.048V15.72h1.896zm-10.08 11.52c0 2.208 1.416 4.488 4.176 4.488 2.232 0 4.176-1.8 4.176-4.416 0-2.736-1.824-4.536-4.128-4.536-2.808 0-4.224 2.232-4.224 4.464zM64.024 33V21.504h1.896V33h-1.896zm-.216-14.256v-2.232h2.352v2.232h-2.352zM70.032 33V21.504h1.896v1.44h.048c1.056-1.368 2.376-1.824 3.624-1.824 2.088 0 4.536 1.296 4.536 5.184V33H78.24v-6.576c0-2.328-1.128-3.6-2.928-3.6-2.064 0-3.384 1.392-3.384 4.056V33h-1.896zM95.36 21.504V32.64c0 4.152-1.92 6.528-5.928 6.528-3.192 0-5.184-1.776-5.664-4.392h1.92c.408 1.536 1.464 2.736 3.816 2.736 2.568 0 3.96-1.68 3.96-4.632v-1.464h-.048a5.351 5.351 0 0 1-4.2 1.992c-3.144 0-5.904-2.424-5.904-6.168 0-3.552 2.52-6.12 5.88-6.12 2.184 0 3.504 1.152 4.224 2.04h.048v-1.656h1.896zM85.256 27.24c0 2.208 1.44 4.488 4.2 4.488 2.232 0 4.176-1.824 4.176-4.416 0-2.736-1.824-4.536-4.128-4.536-2.808 0-4.248 2.256-4.248 4.464zM99.52 33v-2.112h2.112V33H99.52zm0-16.368h2.112l-.192 11.832h-1.728l-.192-11.832zM36 29c0 12.11-16 20.49-16 20.49S4 41.11 4 29h10c0 3.31 2.69 6 6 6s6-2.69 6-6h10z"/>
        <path fill="#7DD70C" d="M18 3h-.5a1.5 1.5 0 1 1 0-3h5a1.5 1.5 0 1 1 0 3H22v1h-4V3zm19.939 19H2c.509-9.47 8.359-17 17.969-17 9.61 0 17.46 7.53 17.97 17zM40 24.5c0 .83-.638 1.5-1.429 1.5H1.429C.638 26 0 25.33 0 24.5S.638 23 1.429 23h37.142c.791 0 1.429.67 1.429 1.5z"/>
    </g>
</svg>
