<svg xmlns="http://www.w3.org/2000/svg" width="81" height="102" viewBox="0 0 81 102">
    <g fill="none" fill-rule="evenodd">
        <g fill="#FFF">
            <path d="M78.386 79.348l-41.912-11.23c3.604-11.073 15.151-17.552 26.358-14.549s17.969 14.387 15.554 25.78M79.99 84.184c-.264.985-1.221 1.58-2.144 1.333L34.532 73.91c-.923-.247-1.454-1.242-1.19-2.226s1.22-1.58 2.143-1.333L78.8 81.958c.922.248 1.453 1.242 1.19 2.226M60.854 51.768l4.665 1.25.317-1.187-4.664-1.25z"/>
            <path d="M66.42 51.988l-5.831-1.563c-.967-.259-1.536-1.266-1.273-2.248.263-.982 1.26-1.57 2.226-1.31l5.83 1.562c.968.26 1.537 1.266 1.273 2.248-.263.982-1.259 1.57-2.226 1.31"/>
        </g>
        <path fill="#FFF" d="M20.248 53.878l-2.998 1.737a1.163 1.163 0 0 1-1.592-1.585l1.74-3.03a1.5 1.5 0 0 0 0-1.493l-1.74-3.03a1.163 1.163 0 0 1 1.592-1.585l2.998 1.738a1.5 1.5 0 0 0 1.504 0l2.998-1.738a1.163 1.163 0 0 1 1.592 1.585l-1.74 3.03a1.5 1.5 0 0 0 0 1.493l1.74 3.03a1.163 1.163 0 0 1-1.592 1.585l-2.998-1.737a1.5 1.5 0 0 0-1.504 0zM10.578 14.632l.488 3.43A1.163 1.163 0 0 1 9 18.946l-2.157-2.748a1.5 1.5 0 0 0-1.385-.56l-3.46.478a1.163 1.163 0 0 1-.874-2.07l2.734-2.128a1.5 1.5 0 0 0 .564-1.395l-.488-3.43A1.163 1.163 0 0 1 6 6.21l2.157 2.748a1.5 1.5 0 0 0 1.385.56l3.46-.479a1.163 1.163 0 0 1 .874 2.07l-2.734 2.129a1.5 1.5 0 0 0-.564 1.394zM58.018 40.332l-1.732.003a.581.581 0 0 1-.293-1.084l1.51-.877a.75.75 0 0 0 .374-.647l.004-1.747a.581.581 0 0 1 1.086-.288l.863 1.501a.75.75 0 0 0 .652.377l1.732-.003a.581.581 0 0 1 .293 1.084l-1.51.877a.75.75 0 0 0-.374.647l-.004 1.746a.581.581 0 0 1-1.086.289l-.863-1.502a.75.75 0 0 0-.652-.376zM39.856 51.348l-1.223 1.227a.581.581 0 0 1-.974-.56l.448-1.688a.75.75 0 0 0-.193-.722l-1.233-1.238a.581.581 0 0 1 .564-.971l1.673.451a.75.75 0 0 0 .726-.195l1.223-1.227a.581.581 0 0 1 .974.56l-.448 1.688a.75.75 0 0 0 .193.722l1.233 1.238a.581.581 0 0 1-.564.971l-1.673-.451a.75.75 0 0 0-.726.195z"/>
        <g transform="translate(-1.5 -4)">
            <path fill="#FFF" fill-rule="nonzero" d="M9.622 102.747c.18-9.6 3.642-15.25 10.387-16.95 6.568-1.655 12.897.723 18.987 7.134a3 3 0 0 1-1.254 4.921l-24.2 7.806a3 3 0 0 1-3.92-2.911zm9.607-19.861c-4.802 1.286-9.742-1.581-11.034-6.405-1.293-4.824 1.552-9.777 6.353-11.063 4.801-1.287 9.741 1.58 11.034 6.404 1.292 4.824-1.552 9.777-6.353 11.064z"/>
            <rect width="3" height="3" x="12" y="72" fill="#4ABE07" rx="1.5"/>
            <path stroke="#4ABE07" stroke-linecap="round" d="M14 78.5c1.627.451 2.794.618 3.5.5s2.04-1.118 4-3"/>
            <rect width="3" height="3" x="17" y="71" fill="#4ABE07" rx="1.5"/>
            <path fill="#FFF" fill-rule="nonzero" d="M59.087 26.993l-2.263-3.371c-.537-.801-.825-2.235-.641-3.183l.777-3.995c.368-1.897-.875-3.751-2.765-4.119l-3.979-.773c-.944-.184-2.158-.99-2.695-1.79L45.26 6.39a3.492 3.492 0 0 0-4.858-.944L37.04 7.724c-.798.54-2.227.834-3.17.65l-3.976-.773c-1.89-.367-3.738.886-4.107 2.784l-.776 3.995c-.184.947-.99 2.17-1.788 2.71l-3.36 2.279a3.537 3.537 0 0 0-.95 4.88l2.264 3.372c.537.8.826 2.235.642 3.182l-.777 3.995c-.369 1.898.876 3.753 2.765 4.12l3.975.773c.945.184 2.159.99 2.696 1.79l2.263 3.371a3.498 3.498 0 0 0 4.858.944l3.36-2.278c.799-.54 2.225-.833 3.17-.65l3.978.774c1.891.367 3.738-.887 4.107-2.784l.777-3.996c.184-.95.989-2.169 1.787-2.71l3.36-2.278a3.54 3.54 0 0 0 .95-4.88zM38.288 20.11a1.753 1.753 0 0 0-2.053 1.392 1.753 1.753 0 0 0 1.382 2.06l3.436.668c2.845.553 4.702 3.32 4.147 6.18l-.002-.001c-.556 2.859-3.313 4.726-6.158 4.176l-.67 3.452-3.437-.668.671-3.452c-2.845-.553-4.703-3.32-4.147-6.18l3.436.669a1.753 1.753 0 0 0 1.382 2.06l3.432.667a1.753 1.753 0 0 0 2.054-1.392h.003a1.753 1.753 0 0 0-1.381-2.06l-3.436-.668c-2.846-.553-4.703-3.32-4.147-6.179.556-2.862 3.314-4.73 6.16-4.176l.67-3.452 3.437.668-.672 3.452c2.845.553 4.703 3.32 4.147 6.18l-3.436-.669a1.753 1.753 0 0 0-1.381-2.06l-3.437-.668v-.003.004z"/>
        </g>
    </g>
</svg>
