<svg xmlns="http://www.w3.org/2000/svg" width="105" height="90" viewBox="0 0 105 90">
    <g fill="none" fill-rule="evenodd" transform="translate(0 -13)">
        <rect width="93" height="70" x="11" y="32" stroke="#FFF" stroke-width="2" rx="5"/>
        <path fill="#FFF" d="M62 33h2v70h-2zM20.832 44.337H0v10.111h20.832V61L35 49.5 20.832 38z"/>
        <rect width="13" height="20" x="41" y="42" stroke="#FFF" stroke-width="2" rx="2"/>
        <rect width="25" height="6" x="71" y="42" stroke="#FFF" stroke-width="2" rx="2"/>
        <rect width="15" height="5" x="20" y="67" fill="#FFF" rx="2"/>
        <rect width="36" height="2" x="20" y="77" fill="#FFF" rx="1"/>
        <rect width="36" height="2" x="20" y="80" fill="#FFF" rx="1"/>
        <rect width="36" height="2" x="20" y="83" fill="#FFF" rx="1"/>
        <rect width="26" height="2" x="20" y="86" fill="#FFF" rx="1"/>
        <rect width="15" height="5" x="40" y="67" fill="#FFF" rx="2"/>
        <rect width="5" height="5" x="71" y="55" fill="#FFF" rx="2.5"/>
        <rect width="5" height="5" x="81" y="55" fill="#FFF" rx="2.5"/>
        <rect width="5" height="5" x="91" y="55" fill="#FFF" rx="2.5"/>
        <rect width="5" height="5" x="71" y="65" fill="#FFF" rx="2.5"/>
        <rect width="5" height="5" x="81" y="65" fill="#FFF" rx="2.5"/>
        <rect width="5" height="5" x="91" y="65" fill="#FFF" rx="2.5"/>
        <rect width="5" height="5" x="71" y="75" fill="#FFF" rx="2.5"/>
        <rect width="5" height="5" x="81" y="75" fill="#FFF" rx="2.5"/>
        <rect width="5" height="5" x="91" y="75" fill="#FFF" rx="2.5"/>
        <path fill="#FFF" d="M16.37 22l-3.081-3.796c-.117.13-.429.442-.546.572V22h-1.859v-8.866h1.859v3.393l3.224-3.393h2.327l-3.731 3.835L18.723 22H16.37zm5.827-6.435c2.054 0 3.172 1.534 3.172 3.276 0 .143 0 .299-.026.468h-4.628c0 .858.728 1.599 1.612 1.599.572 0 .975-.247 1.248-.65h1.703c-.403 1.053-1.326 1.963-2.964 1.963-1.859 0-3.315-1.352-3.315-3.38 0-1.781 1.17-3.276 3.198-3.276zm-.013 1.222c-.858 0-1.39.637-1.456 1.326h2.912c-.078-.728-.637-1.326-1.456-1.326zm7.608-1.222c2.054 0 3.172 1.534 3.172 3.276 0 .143 0 .299-.026.468H28.31c0 .858.729 1.599 1.613 1.599.572 0 .975-.247 1.248-.65h1.703c-.404 1.053-1.327 1.963-2.965 1.963-1.858 0-3.314-1.352-3.314-3.38 0-1.781 1.17-3.276 3.198-3.276zm-.013 1.222c-.857 0-1.39.637-1.456 1.326h2.912c-.078-.728-.636-1.326-1.456-1.326zm4.853 8.268v-9.282h1.69v.741h.052c.39-.468.962-.91 2.002-.91 1.313 0 2.86 1.092 2.86 3.315 0 1.989-1.378 3.289-2.964 3.289-.884 0-1.495-.403-1.872-.897h-.052v3.744h-1.716zm4.823-6.136c0-.936-.52-1.794-1.612-1.794-.845 0-1.547.715-1.547 1.794 0 1.066.702 1.794 1.56 1.794 1.066 0 1.599-.91 1.599-1.794zm6.165-3.354c2.054 0 3.172 1.534 3.172 3.276 0 .143 0 .299-.026.468h-4.628c0 .858.728 1.599 1.612 1.599.572 0 .975-.247 1.248-.65h1.703c-.403 1.053-1.326 1.963-2.964 1.963-1.859 0-3.315-1.352-3.315-3.38 0-1.781 1.17-3.276 3.198-3.276zm-.013 1.222c-.858 0-1.391.637-1.456 1.326h2.912c-.078-.728-.637-1.326-1.456-1.326zm8.973-1.144v1.638a4.519 4.519 0 0 0-.832-.078c-1.04 0-1.56.65-1.56 1.768V22h-1.755v-6.227h1.716v.962h.04c.337-.611.987-1.144 1.82-1.144.246 0 .402.013.571.052zm9.497 1.807H62.53c-.04-.442-.325-.702-.715-.702-.416 0-.637.273-.637.546 0 .351.195.572 1.248.936 1.313.429 1.794 1.092 1.794 1.989 0 1.144-.871 2.002-2.405 2.002-1.586 0-2.34-.832-2.405-2.041h1.573c.039.494.299.845.87.845.443 0 .716-.299.716-.663 0-.429-.3-.689-1.235-1.001-1.17-.377-1.781-.962-1.781-1.937 0-1.118.91-1.859 2.249-1.859 1.378 0 2.145.793 2.275 1.885zm7.166-1.677l-3.406 9.282h-1.664l1.144-3.107-2.262-6.175h1.82l.897 2.704c.143.455.325 1.027.416 1.534h.052c.117-.598.234-.988.403-1.534l.871-2.704h1.729zm5.385 1.677h-1.547c-.039-.442-.325-.702-.715-.702-.416 0-.637.273-.637.546 0 .351.195.572 1.248.936 1.313.429 1.794 1.092 1.794 1.989 0 1.144-.87 2.002-2.405 2.002-1.586 0-2.34-.832-2.405-2.041h1.573c.04.494.3.845.871.845.442 0 .715-.299.715-.663 0-.429-.299-.689-1.235-1.001-1.17-.377-1.78-.962-1.78-1.937 0-1.118.91-1.859 2.248-1.859 1.378 0 2.145.793 2.275 1.885zm1.082-.195v-1.482h.755v-1.989h1.767v1.989h1.47v1.482h-1.47v2.418c0 .728.222.923.78.923.234 0 .534-.039.754-.104v1.43a4.943 4.943 0 0 1-1.222.169c-1.56 0-2.08-.884-2.08-2.236v-2.6h-.754zm8.194-1.69c2.054 0 3.172 1.534 3.172 3.276 0 .143 0 .299-.026.468h-4.628c0 .858.728 1.599 1.612 1.599.572 0 .975-.247 1.248-.65h1.703c-.403 1.053-1.326 1.963-2.964 1.963-1.86 0-3.315-1.352-3.315-3.38 0-1.781 1.17-3.276 3.198-3.276zm-.013 1.222c-.858 0-1.391.637-1.456 1.326h2.912c-.078-.728-.637-1.326-1.456-1.326zM90.717 22v-6.227h1.729v.78h.026c.39-.559 1.014-.975 1.807-.975.936 0 1.599.546 1.833 1.118.312-.559 1.079-1.118 2.015-1.118 1.43 0 2.353.988 2.353 2.847V22h-1.755v-3.523c0-.715-.312-1.352-1.053-1.352-.611 0-1.196.468-1.196 1.534V22h-1.755v-3.523c0-.767-.403-1.352-1.053-1.352-.728 0-1.196.559-1.196 1.534V22h-1.755z"/>
    </g>
</svg>
