<svg xmlns="http://www.w3.org/2000/svg" width="110" height="114" viewBox="0 0 110 114">
    <g fill="#FFF" fill-rule="evenodd">
        <path d="M0 18h95v2H0zM4.644.552c2.28 0 3.612 1.512 3.9 2.88H6.696c-.216-.744-.96-1.416-2.064-1.416-1.452 0-2.484 1.176-2.484 2.88 0 1.572 1.008 2.904 2.508 2.904 1.2 0 1.872-.756 2.124-1.548h1.908c-.516 1.656-1.836 3.012-4.08 3.012-2.532 0-4.212-1.884-4.212-4.38S2.184.552 4.644.552zM9.915 6.12c0-1.776 1.32-3.06 3.072-3.06 1.812 0 3.072 1.32 3.072 3.06 0 1.692-1.272 3.084-3.072 3.084-1.764 0-3.072-1.344-3.072-3.084zm1.632.012c0 .948.624 1.632 1.44 1.632.876 0 1.428-.708 1.428-1.632 0-.888-.516-1.632-1.428-1.632-.9 0-1.44.696-1.44 1.632zM17.526 9V3.252h1.596v.72h.024c.36-.516.936-.9 1.668-.9.864 0 1.476.504 1.692 1.032.288-.516.996-1.032 1.86-1.032 1.32 0 2.172.912 2.172 2.628V9h-1.62V5.748c0-.66-.288-1.248-.972-1.248-.564 0-1.104.432-1.104 1.416V9h-1.62V5.748c0-.708-.372-1.248-.972-1.248-.672 0-1.104.516-1.104 1.416V9h-1.62zm10.839 2.82V3.252h1.56v.684h.048c.36-.432.888-.84 1.848-.84 1.212 0 2.64 1.008 2.64 3.06 0 1.836-1.272 3.036-2.736 3.036-.816 0-1.38-.372-1.728-.828h-.048v3.456h-1.584zm4.452-5.664c0-.864-.48-1.656-1.488-1.656-.78 0-1.428.66-1.428 1.656 0 .984.648 1.656 1.44 1.656.984 0 1.476-.84 1.476-1.656zm8.835-2.904V9h-1.56v-.72h-.048c-.372.492-.936.912-1.872.912-1.116 0-2.616-.9-2.616-3.072 0-1.848 1.272-3.024 2.736-3.024.9 0 1.44.444 1.752.9h.048v-.744h1.56zM37.2 6.132c0 .84.468 1.656 1.476 1.656.768 0 1.44-.672 1.44-1.644 0-1.008-.624-1.668-1.428-1.668-1.008 0-1.488.828-1.488 1.656zM43.539 9V3.252h1.596v.72h.048c.396-.636 1.044-.9 1.704-.9 1.296 0 2.196.864 2.196 2.628V9h-1.62V5.808c0-.864-.408-1.308-1.08-1.308-.708 0-1.224.504-1.224 1.464V9h-1.62zM55.71 3.252l-3.144 8.568H51.03l1.056-2.868-2.088-5.7h1.68l.828 2.496c.132.42.3.948.384 1.416h.048c.108-.552.216-.912.372-1.416l.804-2.496h1.596zM0 48h95v2H0zM5.7 30.816v1.488H2.532v1.764h3.06v1.416h-3.06v2.028h3.3V39H.816v-8.184H5.7zM7.647 39v-5.748h1.596v.72h.024c.36-.516.936-.9 1.668-.9.864 0 1.476.504 1.692 1.032.288-.516.996-1.032 1.86-1.032 1.32 0 2.172.912 2.172 2.628V39h-1.62v-3.252c0-.66-.288-1.248-.972-1.248-.564 0-1.104.432-1.104 1.416V39h-1.62v-3.252c0-.708-.372-1.248-.972-1.248-.672 0-1.104.516-1.104 1.416V39h-1.62zm16.527-5.748V39h-1.56v-.72h-.048c-.372.492-.936.912-1.872.912-1.116 0-2.616-.9-2.616-3.072 0-1.848 1.272-3.024 2.736-3.024.9 0 1.44.444 1.752.9h.048v-.744h1.56zm-4.452 2.88c0 .84.468 1.656 1.476 1.656.768 0 1.44-.672 1.44-1.644 0-1.008-.624-1.668-1.428-1.668-1.008 0-1.488.828-1.488 1.656zM26.061 39v-5.748h1.62V39h-1.62zm-.036-6.948v-1.548h1.704v1.548h-1.704zM29.544 39v-8.64h1.62V39h-1.62zM16 68h63c8.837 0 16 7.163 16 16s-7.163 16-16 16H16c-8.837 0-16-7.163-16-16s7.163-16 16-16zm12.8 15.544c.924-.264 1.668-1.056 1.668-2.232 0-1.344-.804-2.496-3.108-2.496h-2.544V87h1.716v-3.216h.54L29.292 87h2.04L28.8 83.544zm-.096-2.16c0 .684-.468 1.14-1.248 1.14h-.924v-2.328h.912c.816 0 1.26.444 1.26 1.188zm6.003-.324c-1.872 0-2.952 1.38-2.952 3.024 0 1.872 1.344 3.12 3.06 3.12 1.512 0 2.364-.84 2.736-1.812h-1.572c-.252.372-.624.6-1.152.6-.816 0-1.488-.684-1.488-1.476h4.272c.024-.156.024-.3.024-.432 0-1.608-1.032-3.024-2.928-3.024zm-.012 1.128c.756 0 1.272.552 1.344 1.224h-2.688c.06-.636.552-1.224 1.344-1.224zm10.179-.936h-1.512v.696h-.06c-.288-.408-.828-.876-1.74-.876-1.596 0-2.784 1.308-2.784 3.036 0 1.86 1.224 3.024 2.712 3.024.888 0 1.452-.372 1.836-.828h.036v.732c0 1.116-.504 1.728-1.476 1.728-.84 0-1.248-.432-1.368-.984h-1.62c.216 1.428 1.284 2.304 2.892 2.304 2.124 0 3.084-1.128 3.084-3.264v-5.568zm-4.452 2.844c0-.804.504-1.62 1.476-1.62.816 0 1.452.648 1.452 1.632 0 .948-.66 1.608-1.464 1.608-1.008 0-1.464-.828-1.464-1.62zM46.749 87h1.62v-5.748h-1.62V87zm-.036-6.948h1.704v-1.548h-1.704v1.548zm7.515 2.748c-.12-1.008-.828-1.74-2.1-1.74-1.236 0-2.076.684-2.076 1.716 0 .9.564 1.44 1.644 1.788.864.288 1.14.528 1.14.924 0 .336-.252.612-.66.612-.528 0-.768-.324-.804-.78H49.92c.06 1.116.756 1.884 2.22 1.884 1.416 0 2.22-.792 2.22-1.848 0-.828-.444-1.44-1.656-1.836-.972-.336-1.152-.54-1.152-.864 0-.252.204-.504.588-.504.36 0 .624.24.66.648h1.428zm.999-.18h.696v2.4c0 1.248.48 2.064 1.92 2.064.336 0 .792-.06 1.128-.156v-1.32c-.204.06-.48.096-.696.096-.516 0-.72-.18-.72-.852V82.62h1.356v-1.368h-1.356v-1.836h-1.632v1.836h-.696v1.368zm7.563-1.56c-1.872 0-2.952 1.38-2.952 3.024 0 1.872 1.344 3.12 3.06 3.12 1.512 0 2.364-.84 2.736-1.812h-1.572c-.252.372-.624.6-1.152.6-.816 0-1.488-.684-1.488-1.476h4.272c.024-.156.024-.3.024-.432 0-1.608-1.032-3.024-2.928-3.024zm-.012 1.128c.756 0 1.272.552 1.344 1.224h-2.688c.06-.636.552-1.224 1.344-1.224zm8.283-1.056a2.199 2.199 0 0 0-.528-.048c-.768 0-1.368.492-1.68 1.056h-.036v-.888h-1.584V87h1.62v-2.796c0-1.032.48-1.632 1.44-1.632.324 0 .564.036.768.072v-1.512zM96.65 107.919c-.348-.504-1.211-1.453-1.468-1.935-.223-.426-.2-.617-.146-.97.094-.628.738-1.117 1.425-1.051.519.049.959.392 1.355.716.239.195.533.574.71.788.163.196.203.277.377.509.23.307.302.459.214.12-.071-.495-.187-1.342-.355-2.091-.128-.568-.16-.657-.281-1.093-.13-.464-.195-.79-.316-1.281-.084-.348-.235-1.06-.276-1.46-.057-.546-.087-1.438.264-1.848.275-.321.906-.418 1.297-.22.512.259.803 1.003.936 1.3.239.534.387 1.15.516 1.96.164 1.032.466 2.463.476 2.764.024-.37-.068-1.146-.004-1.5.058-.321.328-.694.666-.795.286-.085.62-.116.916-.055.313.064.643.288.766.499.362.624.369 1.899.384 1.83.086-.375.07-1.228.284-1.583.14-.234.497-.445.687-.48.294-.051.655-.067.964-.007.249.049.586.345.677.487.218.344.342 1.317.379 1.658.015.14.074-.392.293-.736.406-.64 1.843-.763 1.898.639.025.654.02.624.02 1.064 0 .517-.012.828-.04 1.202-.031.4-.117 1.304-.242 1.742-.086.3-.371.978-.652 1.384 0 0-1.074 1.25-1.191 1.813-.118.562-.08.566-.102.965-.023.398.12.922.12.922s-6.02.077-7.105.066c0 0 .185-1.011-.227-1.358-.305-.26-.83-.784-1.144-1.06l-.832-.921c-.284-.36-.63-1.093-1.243-1.984z"/>
    </g>
</svg>
