<svg xmlns="http://www.w3.org/2000/svg" width="95" height="91" viewBox="0 0 95 91">
    <g fill="none" fill-rule="evenodd" transform="translate(0 -12)">
        <rect width="93" height="70" x="1" y="32" stroke="#FFF" stroke-width="2" rx="5"/>
        <path fill="#FFF" d="M9 83h6a2 2 0 0 1 2 2v18H7V85a2 2 0 0 1 2-2zM21 73h6a2 2 0 0 1 2 2v28H19V75a2 2 0 0 1 2-2zM33 76h6a2 2 0 0 1 2 2v25H31V78a2 2 0 0 1 2-2zM45 56h6a2 2 0 0 1 2 2v45H43V58a2 2 0 0 1 2-2z"/>
        <circle cx="12" cy="71" r="2" fill="#FFF"/>
        <circle cx="24" cy="62" r="2" fill="#FFF"/>
        <circle cx="35" cy="65" r="2" fill="#FFF"/>
        <circle cx="47" cy="45" r="2" fill="#FFF"/>
        <path stroke="#FFF" stroke-linecap="square" d="M1 71.5h11L23.5 62l11 3 12-20"/>
        <path fill="#FFF" d="M.884 13.134h3.042c3.198 0 4.875 2.015 4.875 4.433C8.801 19.972 7.02 22 3.9 22H.884v-8.866zm1.859 7.228h1.118c2.093 0 3.042-1.261 3.042-2.795 0-1.651-1.027-2.795-3.042-2.795H2.743v5.59zm13.887-4.589V22h-1.69v-.78h-.052c-.403.533-1.014.988-2.028.988-1.209 0-2.834-.975-2.834-3.328 0-2.002 1.378-3.276 2.964-3.276.975 0 1.56.481 1.898.975h.052v-.806h1.69zm-4.823 3.12c0 .91.507 1.794 1.6 1.794.831 0 1.56-.728 1.56-1.781 0-1.092-.677-1.807-1.548-1.807-1.092 0-1.612.897-1.612 1.794zm11.196-1.443h-1.547c-.038-.442-.325-.702-.715-.702-.415 0-.636.273-.636.546 0 .351.194.572 1.247.936 1.314.429 1.794 1.092 1.794 1.989 0 1.144-.87 2.002-2.405 2.002-1.585 0-2.34-.832-2.404-2.041h1.573c.038.494.299.845.87.845.442 0 .715-.299.715-.663 0-.429-.299-.689-1.235-1.001-1.17-.377-1.78-.962-1.78-1.937 0-1.118.91-1.859 2.248-1.859 1.378 0 2.145.793 2.275 1.885zm1.81 4.55v-9.36h1.756v3.913h.052c.429-.689 1.13-.975 1.833-.975 1.39 0 2.366.923 2.366 2.847V22h-1.755v-3.471c0-.923-.442-1.404-1.17-1.404-.767 0-1.326.533-1.326 1.586V22h-1.755zm7.96 0v-9.36h1.69v3.874h.052c.39-.429 1.001-.91 2.054-.91 1.209 0 2.808 1.014 2.808 3.315 0 2.041-1.443 3.289-2.938 3.289-.91 0-1.521-.403-1.898-.897h-.052V22h-1.716zm4.823-3.081c0-.936-.52-1.794-1.612-1.794-.845 0-1.547.715-1.547 1.794 0 1.066.702 1.794 1.56 1.794 1.066 0 1.599-.91 1.599-1.794zm2.967-.039c0-1.924 1.43-3.315 3.328-3.315 1.963 0 3.328 1.43 3.328 3.315 0 1.833-1.378 3.341-3.328 3.341-1.91 0-3.328-1.456-3.328-3.341zm1.768.013c0 1.027.676 1.768 1.56 1.768.95 0 1.547-.767 1.547-1.768 0-.962-.559-1.768-1.547-1.768-.975 0-1.56.754-1.56 1.768zm12.665-3.12V22h-1.69v-.78h-.051c-.404.533-1.015.988-2.029.988-1.209 0-2.834-.975-2.834-3.328 0-2.002 1.378-3.276 2.964-3.276.975 0 1.56.481 1.898.975h.053v-.806h1.69zm-4.823 3.12c0 .91.508 1.794 1.6 1.794.831 0 1.56-.728 1.56-1.781 0-1.092-.676-1.807-1.547-1.807-1.093 0-1.613.897-1.613 1.794zm11.015-3.25v1.638a4.519 4.519 0 0 0-.832-.078c-1.04 0-1.56.65-1.56 1.768V22H57.04v-6.227h1.716v.962h.039c.338-.611.988-1.144 1.82-1.144.247 0 .403.013.572.052zm7.426-3.003V22h-1.69v-.676h-.052a2.697 2.697 0 0 1-2.041.897c-1.196 0-2.821-.988-2.821-3.341 0-1.989 1.378-3.315 2.951-3.315.936 0 1.482.39 1.885.923h.052V12.64h1.716zm-4.823 6.253c0 .91.52 1.807 1.599 1.807.832 0 1.56-.741 1.56-1.794 0-1.092-.676-1.846-1.547-1.846-1.079 0-1.612.936-1.612 1.833zM88 52H76v12c-6.627 0-12-5.373-12-12s5.373-12 12-12 12 5.373 12 12z"/>
        <path fill="#FFF" d="M90 54c0 6.627-5.373 12-12 12V54h12zM59 33h2v70h-2z"/>
        <rect width="23" height="2" x="66" y="72" stroke="#FFF" stroke-width="2" rx="1"/>
        <rect width="23" height="2" x="66" y="81" stroke="#FFF" stroke-width="2" rx="1"/>
        <rect width="15" height="2" x="66" y="90" stroke="#FFF" stroke-width="2" rx="1"/>
    </g>
</svg>
