<svg xmlns="http://www.w3.org/2000/svg" width="95" height="91" viewBox="0 0 95 91">
    <g fill="none" fill-rule="evenodd" transform="translate(0 -12)">
        <rect width="93" height="70" x="1" y="32" stroke="#FFF" stroke-width="2" rx="5"/>
        <rect width="25" height="2" x="52" y="54" stroke="#FFF" stroke-width="2" rx="1"/>
        <rect width="25" height="2" x="52" y="63" stroke="#FFF" stroke-width="2" rx="1"/>
        <rect width="15" height="2" x="52" y="72" stroke="#FFF" stroke-width="2" rx="1"/>
        <path fill="#FFF" d="M2.964 22v-3.536l-2.873-5.33h2.015l1.365 2.639c.195.377.364.754.468 1.105h.026c.143-.364.286-.689.481-1.092l1.287-2.652h1.95l-2.86 5.317V22H2.964zm4.202-3.12c0-1.924 1.43-3.315 3.328-3.315 1.963 0 3.328 1.43 3.328 3.315 0 1.833-1.378 3.341-3.328 3.341-1.91 0-3.328-1.456-3.328-3.341zm1.768.013c0 1.027.676 1.768 1.56 1.768.95 0 1.547-.767 1.547-1.768 0-.962-.559-1.768-1.547-1.768-.975 0-1.56.754-1.56 1.768zm12.275-3.12V22h-1.741v-.78h-.04c-.506.741-1.143.988-1.82.988-1.014 0-2.261-.624-2.261-2.743v-3.692h1.755v3.471c0 .91.428 1.404 1.104 1.404.768 0 1.248-.533 1.248-1.573v-3.302h1.755zm6.166-.13v1.638a4.519 4.519 0 0 0-.832-.078c-1.04 0-1.56.65-1.56 1.768V22h-1.755v-6.227h1.716v.962h.039c.338-.611.988-1.144 1.82-1.144.247 0 .403.013.572.052zm5.193 9.412v-9.282h1.69v.741h.052c.39-.468.962-.91 2.002-.91 1.313 0 2.86 1.092 2.86 3.315 0 1.989-1.378 3.289-2.964 3.289-.884 0-1.495-.403-1.872-.897h-.052v3.744h-1.716zm4.823-6.136c0-.936-.52-1.794-1.612-1.794-.845 0-1.547.715-1.547 1.794 0 1.066.702 1.794 1.56 1.794 1.066 0 1.6-.91 1.6-1.794zM40.775 22v-9.36h1.755V22h-1.755zm9.96-6.227V22h-1.69v-.78h-.051c-.403.533-1.014.988-2.028.988-1.21 0-2.834-.975-2.834-3.328 0-2.002 1.378-3.276 2.964-3.276.975 0 1.56.481 1.898.975h.052v-.806h1.69zm-4.822 3.12c0 .91.507 1.794 1.599 1.794.832 0 1.56-.728 1.56-1.781 0-1.092-.676-1.807-1.547-1.807-1.092 0-1.612.897-1.612 1.794zm9.766-3.328c1.781 0 2.743 1.235 2.938 2.275h-1.742c-.156-.481-.585-.793-1.209-.793-.949 0-1.521.741-1.521 1.833 0 1.027.572 1.846 1.573 1.846.676 0 1.066-.403 1.235-.858h1.781c-.351 1.274-1.3 2.353-3.042 2.353-1.846 0-3.328-1.313-3.328-3.354 0-1.82 1.261-3.302 3.315-3.302zm7.426 0c2.054 0 3.172 1.534 3.172 3.276 0 .143 0 .299-.026.468h-4.628c0 .858.728 1.599 1.612 1.599.572 0 .975-.247 1.248-.65h1.703c-.403 1.053-1.326 1.963-2.964 1.963-1.859 0-3.315-1.352-3.315-3.38 0-1.781 1.17-3.276 3.198-3.276zm-.013 1.222c-.858 0-1.39.637-1.456 1.326h2.912c-.078-.728-.637-1.326-1.456-1.326z"/>
        <path fill="#FFF" fill-rule="nonzero" d="M29 48c-6.05 0-11 4.869-11 10.876 0 12.8 10.057 21.555 10.49 21.947a.826.826 0 0 0 1.02 0C29.944 80.431 40 71.636 40 58.876 40 52.869 35.05 48 29 48zm0 16c-2.75 0-5-2.25-5-5s2.25-5 5-5 5 2.25 5 5-2.25 5-5 5z"/>
    </g>
</svg>
